<svg width="37" height="37" viewBox="0 0 37 37" fill="none" xmlns="http://www.w3.org/2000/svg">
<path d="M32.0007 21.2202L36.6261 20.3502V16.2033L32.0007 15.4059C31.6455 13.7022 30.9712 12.1072 30.0432 10.6935L32.6967 6.80033L29.7605 3.86415L25.9253 6.57559C24.5116 5.64761 22.9239 4.98063 21.213 4.62538L20.343 0H16.1961L15.3986 4.62538C13.6949 4.98063 12.1 5.65486 10.6862 6.58284L6.80032 3.9294L3.86415 6.86558L6.57558 10.7007C5.6476 12.1144 4.98062 13.7094 4.62538 15.4131L0 16.2831V20.43L4.62538 21.2275C4.98062 22.9384 5.65486 24.5261 6.58284 25.9399L3.9294 29.8258L6.86557 32.7619L10.708 30.0505C12.1217 30.9785 13.7167 31.6527 15.4204 32.0007L16.2903 36.6261H20.4372L21.2347 32.0007C22.9457 31.6455 24.5334 30.9712 25.9471 30.0433L29.833 32.6967L32.7692 29.7605L30.0578 25.9254C30.9785 24.5189 31.6455 22.9312 32.0007 21.2202ZM18.313 26.9041C13.5717 26.9041 9.72925 23.0544 9.72925 18.3203C9.72925 13.5862 13.5717 9.73651 18.313 9.73651C23.0544 9.73651 26.8968 13.5789 26.8968 18.3203C26.8968 23.0617 23.0544 26.9041 18.313 26.9041Z" fill="#DFF8FE"/>
</svg>
