<svg width="33" height="41" viewBox="0 0 33 41" fill="none" xmlns="http://www.w3.org/2000/svg">
<path d="M16.5 0C11.2617 0 7 4.2617 7 9.5C7 14.7383 11.2617 19 16.5 19C21.7383 19 26 14.7383 26 9.5C26 4.2617 21.7383 0 16.5 0Z" fill="#E6F0FF"/>
<path d="M17.2438 38.1579C17.2438 36.6876 17.8609 35.276 18.9346 34.2907L23.6007 30.0219C24.5477 29.1579 25.7632 28.6861 27.029 28.6861C28.0785 28.6861 29.0926 29.0234 29.9446 29.6202C30.5784 28.3602 31.682 27.428 33 27.0206C31.4098 24.5992 28.703 23 25.6327 23H8.85493C3.9726 23 0 27.0377 0 32V39.5789C0 40.3634 0.62637 41 1.39815 41H18.0976C17.557 40.1587 17.2438 39.1773 17.2438 38.1579Z" fill="#E6F0FF"/>
</svg>
