<svg width="64" height="52" viewBox="0 0 64 52" fill="none" xmlns="http://www.w3.org/2000/svg">
<g filter="url(#filter0_d_30826_862)">
<path d="M53.6391 8.49915V34.9054C53.6391 36.2889 52.5173 37.4045 51.1399 37.4045H12.4998C11.1162 37.4045 10.0006 36.2827 10.0006 34.9054V8.49915C10.0006 7.11558 11.1224 6 12.4998 6H51.1399C52.5173 6 53.6391 7.12181 53.6391 8.49915Z" fill="#84B5FF"/>
</g>
<path d="M53.6385 31.3779V34.9116C53.6385 36.2952 52.5167 37.4108 51.1393 37.4108H12.4991C11.1156 37.4108 10 36.289 10 34.9116V31.3779H53.6385Z" fill="#276ED8"/>
<path opacity="0.8" d="M33.1656 34.6873C33.1656 34.9802 33.2528 35.2482 33.4086 35.4788H13.8891C13.4528 35.4788 13.0976 35.1297 13.0976 34.6873C13.0976 34.251 13.4528 33.8958 13.8891 33.8958H33.4086C33.259 34.1263 33.1656 34.3943 33.1656 34.6873Z" fill="#84B5FF"/>
<path d="M49.9154 34.6873C49.9154 35.1235 49.5602 35.4788 49.1239 35.4788H43.4151C43.2593 35.2482 43.1721 34.9802 43.1721 34.6873C43.1721 34.3943 43.2593 34.1263 43.4151 33.8958H49.1239C49.5539 33.902 49.9154 34.2572 49.9154 34.6873Z" fill="#84B5FF"/>
<path d="M45.9704 34.6874C45.9704 34.9803 45.8831 35.2483 45.7273 35.4789C45.478 35.8466 45.0542 36.0897 44.5681 36.0897C44.0882 36.0897 43.6644 35.8466 43.4151 35.4789C43.2593 35.2483 43.1721 34.9803 43.1721 34.6874C43.1721 34.3945 43.2593 34.1265 43.4151 33.8959C43.6644 33.5282 44.0882 33.2852 44.5681 33.2852C45.0542 33.2852 45.478 33.5282 45.7273 33.8959C45.8769 34.1265 45.9704 34.3945 45.9704 34.6874Z" fill="white"/>
<path d="M45.2538 34.6875C45.2538 35.0677 44.9484 35.3731 44.5682 35.3731C44.1881 35.3731 43.8827 35.0677 43.8827 34.6875C43.8827 34.3073 44.1881 34.002 44.5682 34.002C44.9484 34.002 45.2538 34.3073 45.2538 34.6875Z" fill="#84B5FF"/>
<path d="M22.3389 33.5475V32.2325C22.3389 32.058 22.5197 31.9458 22.6755 32.0268L23.9905 32.6875C24.1588 32.7747 24.1588 33.0178 23.9905 33.0988L22.6755 33.7594C22.5197 33.8342 22.3389 33.722 22.3389 33.5475Z" fill="#84B5FF"/>
<path d="M25.8853 33.2919V32.4879C25.8853 32.382 25.9725 32.3134 26.0473 32.3633L26.683 32.7684C26.764 32.8182 26.764 32.9678 26.683 33.0239L26.0473 33.429C25.9725 33.4664 25.8853 33.3978 25.8853 33.2919Z" fill="#84B5FF"/>
<path d="M26.7452 33.2916V32.4877C26.7452 32.3817 26.8325 32.3132 26.9073 32.363L27.543 32.7681C27.624 32.818 27.624 32.9676 27.543 33.0237L26.9073 33.4288C26.8325 33.4661 26.7452 33.3976 26.7452 33.2916Z" fill="#84B5FF"/>
<path d="M20.7184 33.2916V32.4877C20.7184 32.3817 20.6312 32.3132 20.5564 32.363L19.9207 32.7681C19.8397 32.818 19.8397 32.9676 19.9207 33.0237L20.5564 33.4288C20.6312 33.4661 20.7184 33.3976 20.7184 33.2916Z" fill="#84B5FF"/>
<path d="M19.8585 33.2919V32.4879C19.8585 32.382 19.7712 32.3134 19.6965 32.3633L19.0608 32.7684C18.9797 32.8182 18.9797 32.9678 19.0608 33.0239L19.6965 33.429C19.7712 33.4664 19.8585 33.3978 19.8585 33.2919Z" fill="#84B5FF"/>
<path d="M39.3847 20.8797C40.377 16.7001 37.7932 12.5074 33.6135 11.5152C29.4339 10.5229 25.2412 13.1067 24.2489 17.2864C23.2566 21.466 25.8405 25.6586 30.0201 26.6509C34.1997 27.6432 38.3924 25.0593 39.3847 20.8797Z" fill="#FBF8FF"/>
<path d="M30 21.4552V16.6688C30 16.1391 30.5858 15.8212 31.0283 16.1079L34.7054 18.5011C35.1105 18.7629 35.1105 19.3549 34.7054 19.6167L31.0283 22.0099C30.5858 22.3028 30 21.985 30 21.4552Z" fill="#276ED8"/>
<defs>
<filter id="filter0_d_30826_862" x="0.000610352" y="0" width="63.6385" height="51.4045" filterUnits="userSpaceOnUse" color-interpolation-filters="sRGB">
<feFlood flood-opacity="0" result="BackgroundImageFix"/>
<feColorMatrix in="SourceAlpha" type="matrix" values="0 0 0 0 0 0 0 0 0 0 0 0 0 0 0 0 0 0 127 0" result="hardAlpha"/>
<feOffset dy="4"/>
<feGaussianBlur stdDeviation="5"/>
<feColorMatrix type="matrix" values="0 0 0 0 0.0901961 0 0 0 0 0.0392157 0 0 0 0 0.396078 0 0 0 0.25 0"/>
<feBlend mode="normal" in2="BackgroundImageFix" result="effect1_dropShadow_30826_862"/>
<feBlend mode="normal" in="SourceGraphic" in2="effect1_dropShadow_30826_862" result="shape"/>
</filter>
</defs>
</svg>
